<?xml version="1.0" standalone="no"?>
<!DOCTYPE svg PUBLIC "-//W3C//DTD SVG 20010904//EN"
 "http://www.w3.org/TR/2001/REC-SVG-20010904/DTD/svg10.dtd">
<svg version="1.0" xmlns="http://www.w3.org/2000/svg"
 width="1841.000000pt" height="1386.000000pt" viewBox="0 0 1841.000000 1386.000000"
 preserveAspectRatio="xMidYMid meet">

<g transform="translate(0.000000,1386.000000) scale(0.100000,-0.100000)"
fill="#000000" stroke="none">
<path d="M10186 12540 c-89 -57 -87 -174 5 -243 81 -59 205 10 203 113 -2 114
-119 187 -208 130z m94 -105 c17 -21 5 -45 -24 -45 -28 0 -37 17 -24 43 11 21
31 22 48 2z"/>
<path d="M9203 12369 c-43 -27 -77 -99 -70 -146 11 -64 82 -133 137 -133 33 0
77 27 106 65 50 66 31 171 -39 214 -43 26 -93 27 -134 0z m95 -123 c5 -25 -12
-39 -37 -31 -20 6 -28 34 -14 49 13 13 48 1 51 -18z"/>
<path d="M9755 12058 c-27 -11 -55 -24 -62 -30 -22 -18 -15 -53 17 -77 32 -23
114 -61 133 -61 16 0 89 68 110 102 22 35 21 44 -3 68 -27 27 -125 26 -195 -2z
m115 -27 c0 -13 -22 -29 -53 -36 -28 -7 -32 -1 -21 29 7 17 74 23 74 7z"/>
<path d="M10230 12033 c0 -3 8 -15 18 -26 22 -25 22 -120 -2 -146 -9 -10 -16
-22 -16 -29 0 -6 -21 -29 -47 -51 -43 -37 -53 -41 -101 -41 -30 0 -88 10 -129
22 -71 20 -77 21 -102 5 -143 -88 -202 -109 -264 -93 -34 8 -115 92 -122 127
-9 39 -25 37 -25 -2 0 -66 109 -159 185 -159 19 0 45 -5 59 -11 20 -10 31 -8
59 9 26 15 53 20 106 21 39 0 82 3 96 7 25 6 29 0 26 -38 -4 -35 39 -19 87 32
26 28 54 50 61 50 27 0 100 52 123 88 42 66 48 81 48 127 0 38 4 46 26 58 l26
14 -34 21 c-34 21 -78 30 -78 15z"/>
<path d="M9396 11891 c-34 -35 -30 -66 6 -56 30 9 50 35 46 59 -5 30 -21 29
-52 -3z"/>
<path d="M9921 11540 c0 -33 1 -34 10 -11 6 16 6 28 -1 35 -7 7 -10 -1 -9 -24z"/>
<path d="M9660 11540 c0 -5 5 -10 10 -10 6 0 10 5 10 10 0 6 -4 10 -10 10 -5
0 -10 -4 -10 -10z"/>
<path d="M9660 11366 c0 -9 5 -16 10 -16 6 0 10 4 10 9 0 6 -4 13 -10 16 -5 3
-10 -1 -10 -9z"/>
<path d="M3414 11332 c-92 -49 -158 -98 -221 -165 -48 -50 -133 -170 -133
-187 0 -4 44 -11 98 -15 109 -8 266 -36 359 -64 l61 -19 5 22 c28 117 9 274
-47 392 -19 41 -39 74 -43 74 -4 0 -40 -17 -79 -38z"/>
<path d="M9880 11325 c0 -8 5 -15 10 -15 6 0 10 7 10 15 0 8 -4 15 -10 15 -5
0 -10 -7 -10 -15z"/>
<path d="M9690 11320 c0 -5 5 -10 10 -10 6 0 10 5 10 10 0 6 -4 10 -10 10 -5
0 -10 -4 -10 -10z"/>
<path d="M9800 11288 c0 -4 14 -8 30 -8 17 0 30 2 30 4 0 2 -13 6 -30 8 -16 3
-30 1 -30 -4z"/>
<path d="M3947 10869 c-22 -13 -100 -132 -122 -186 -22 -54 -17 -108 10 -108
13 0 34 24 68 80 27 44 64 97 83 117 38 43 42 67 16 91 -21 19 -30 20 -55 6z"/>
<path d="M3355 10706 c-81 -37 -148 -122 -161 -205 -9 -57 18 -57 35 1 36 118
133 188 264 188 40 0 47 3 47 20 0 18 -7 20 -67 20 -50 0 -81 -6 -118 -24z"/>
<path d="M4069 10672 c-24 -15 -57 -34 -72 -42 -35 -17 -79 -68 -74 -84 8 -24
51 -16 115 21 37 21 80 45 97 53 33 17 43 43 25 65 -18 22 -41 18 -91 -13z"/>
<path d="M1741 10470 c-40 -12 -88 -28 -105 -37 -62 -31 -116 -68 -116 -80 0
-24 122 -193 173 -238 90 -82 210 -155 293 -179 21 -6 22 -3 29 86 9 114 42
250 84 342 17 38 29 71 27 74 -3 2 -31 13 -63 24 -89 30 -230 33 -322 8z"/>
<path d="M3695 10423 c35 -86 25 -143 -34 -196 -58 -52 -142 -69 -254 -51 -36
6 -38 9 -32 35 8 35 -31 79 -69 79 -68 0 -114 -112 -66 -160 17 -17 29 -21 52
-16 26 5 31 2 45 -31 22 -54 19 -141 -6 -191 -32 -62 -74 -87 -148 -87 -65 0
-77 -7 -44 -25 50 -26 145 -6 199 44 66 59 86 186 47 287 -5 14 5 16 87 15 83
0 100 3 150 27 67 33 104 78 119 145 11 45 10 54 -10 96 -13 25 -27 46 -33 46
-6 0 -7 -8 -3 -17z"/>
<path d="M2732 10229 c-55 -28 -107 -89 -128 -153 -23 -66 -25 -173 -4 -186
24 -15 32 4 35 82 4 138 73 231 188 252 20 4 37 11 37 16 0 18 -84 10 -128
-11z"/>
<path d="M525 9911 c-81 -21 -125 -63 -125 -119 0 -57 43 -114 130 -172 110
-73 152 -145 158 -273 8 -156 -30 -242 -209 -481 -186 -247 -233 -346 -232
-496 2 -275 227 -648 516 -854 38 -27 70 -47 72 -45 9 10 -61 215 -78 227 -21
16 -94 160 -143 280 -58 143 -77 233 -78 362 -1 211 44 301 264 526 76 77 154
165 174 196 108 169 116 394 20 578 -83 159 -223 260 -380 274 -32 3 -72 1
-89 -3z"/>
<path d="M10325 9780 c-3 -5 -1 -10 4 -10 6 0 11 5 11 10 0 6 -2 10 -4 10 -3
0 -8 -4 -11 -10z"/>
<path d="M2706 9685 c-51 -18 -160 -93 -210 -144 -35 -36 -38 -43 -28 -65 22
-49 49 -44 116 22 33 33 89 78 124 101 69 46 81 63 62 86 -15 18 -15 18 -64 0z"/>
<path d="M10390 9680 c0 -5 5 -10 11 -10 5 0 7 5 4 10 -3 6 -8 10 -11 10 -2 0
-4 -4 -4 -10z"/>
<path d="M2803 9573 c-39 -35 -117 -151 -139 -210 -14 -35 -15 -49 -5 -69 9
-21 17 -25 44 -22 28 3 35 10 62 64 17 33 47 88 67 121 50 81 61 112 47 129
-17 21 -41 17 -76 -13z"/>
<path d="M2223 9273 c7 -54 29 -109 57 -138 33 -36 160 -119 243 -160 115 -57
233 -85 377 -92 l125 -5 19 36 c22 41 60 68 124 87 65 19 51 32 -25 22 -117
-14 -319 -7 -423 15 -179 37 -352 123 -456 228 l-46 46 5 -39z"/>
<path d="M1270 8281 c8 -6 26 -11 40 -11 14 0 54 -14 90 -31 96 -45 211 -166
273 -286 70 -135 90 -220 91 -378 0 -144 -16 -226 -74 -365 -17 -41 -29 -79
-26 -86 3 -7 21 -24 41 -39 44 -34 69 -22 30 15 -31 29 -31 32 0 123 56 169
69 361 35 527 -55 270 -263 509 -465 535 -36 5 -46 4 -35 -4z"/>
<path d="M12575 7849 c-33 -19 -65 -52 -65 -66 0 -20 19 -16 51 12 60 50 142
41 205 -21 19 -19 34 -44 34 -54 0 -14 7 -20 21 -20 18 0 20 4 14 28 -18 74
-88 125 -179 129 -34 2 -70 -2 -81 -8z"/>
<path d="M13275 7631 c-50 -23 -80 -55 -71 -77 5 -13 11 -11 41 14 32 29 89
52 125 52 41 -1 100 -40 120 -80 17 -33 24 -39 35 -30 15 13 11 32 -17 73 -44
63 -152 85 -233 48z"/>
<path d="M12521 7232 c-4 -147 171 -217 268 -107 17 19 32 35 34 35 3 0 7 -18
11 -39 7 -44 44 -94 87 -116 36 -19 112 -19 149 0 29 15 70 75 51 75 -5 0 -13
-9 -16 -21 -18 -56 -126 -77 -185 -36 -62 42 -75 69 -75 159 l1 80 -24 -54
c-46 -105 -116 -145 -198 -113 -54 21 -84 61 -94 128 l-8 52 -1 -43z"/>
<path d="M5505 5438 c-148 -168 -277 -439 -304 -641 -34 -248 13 -467 133
-620 41 -51 136 -114 205 -133 211 -61 303 -183 361 -479 33 -165 34 -167 143
-205 182 -63 308 -147 552 -365 142 -127 211 -177 277 -201 37 -13 60 -14 163
-4 132 13 259 6 570 -31 347 -40 569 -36 704 13 88 32 95 44 86 166 l-6 104
67 61 c73 68 98 112 88 155 -4 15 -27 61 -50 103 -59 102 -58 126 6 254 49 98
74 183 64 221 -4 13 -29 28 -86 48 -44 15 -143 59 -219 97 -299 148 -548 302
-1329 824 -604 404 -727 482 -854 540 -151 69 -408 144 -493 145 -26 0 -40
-10 -78 -52z"/>
<path d="M11323 4975 c-65 -18 -172 -71 -179 -89 -16 -41 67 -119 186 -175 74
-35 146 -46 215 -32 60 12 69 4 85 -75 17 -82 -5 -149 -69 -207 -66 -58 -139
-82 -232 -74 -54 5 -69 3 -69 -8 0 -19 23 -25 100 -25 122 0 234 61 283 154
28 54 28 153 -1 218 -11 25 -23 61 -27 79 -9 43 -68 150 -107 194 -27 32 -80
56 -118 54 -8 0 -39 -7 -67 -14z"/>
<path d="M10249 4630 c-65 -19 -109 -75 -109 -137 1 -37 35 -112 55 -120 9 -3
24 1 33 10 15 15 15 19 -1 52 -25 52 -22 90 9 114 34 27 66 27 114 0 42 -24
70 -20 70 9 0 25 -30 51 -77 68 -43 15 -57 16 -94 4z"/>
</g>
</svg>
